<?xml version="1.0" encoding="UTF-8"?>
<svg id="Layer_1" data-name="Layer 1" xmlns="http://www.w3.org/2000/svg" viewBox="554 117 811 845">
  <defs>
    <style>
      .cls-1 {
        fill: #e84825;
      }

      .cls-1, .cls-2 {
        stroke-width: 0px;
      }

      .cls-2 {
        fill: #eed2cf;
      }
    </style>
  </defs>
  <polygon class="cls-1" points="896.08 498.24 890.43 516.95 901.74 516.95 896.08 498.24"/>
  <path class="cls-1" d="M1344.78,403.95c-.64-3.09-1.93-5.92-3.53-8.61-.88-1.48-1.82-2.93-2.7-4.41-.58-.97-1.13-1.93-2.33-2.32-.39-.12-.7-.59-.99-.94-12.63-15.5-28.1-27.59-45.48-37.24-28.07-15.58-57.74-27.03-89.18-33.77-14.29-3.06-28.69-5.3-43.22-6.8-10.96-1.13-21.93-2.04-32.95-2.34-7.76-.21-15.53-.37-23.29-.24-9.55.16-19.09.67-28.64,1-3.85.13-7.69.21-11.54.28-9.75.19-19.51.11-29.24-.59-7.39-.53-13.98-3.14-19.12-8.67-3.25-3.5-5.32-7.75-7.12-12.13-2.44-5.96-3.6-12.19-3.83-18.62-.37-10.41,1.72-20.44,4.71-30.33.52-1.71,1.17-3.39,1.66-5.11.43-1.52.69-3.08,1.08-4.61.25-.96.56-1.91.94-2.82,4.86-11.64,10.57-22.88,16.16-34.18,3.91-7.91,7.72-15.87,11.63-23.78,1-2.02,2.21-3.94,3.27-5.93,1.59-2.99,3.06-6.04,3.46-9.47.72-6.28-2.18-11.1-8.11-13.23-1.67-.6-3.47-.84-5.21-1.25-.5-.12-1-.25-1.5-.38h-5.98c-1.35.23-2.7.49-4.06.68-12.14,1.64-23.65,5.38-34.62,10.74-5.48,2.68-10.76,5.76-16.13,8.64-.58.31-1.2.75-1.8.75-1.51,0-2.64.74-3.8,1.53-8.74,5.91-17.6,11.65-26.2,17.76-4.75,3.37-9.06,7.36-13.6,11.02-.86.7-1.87,1.21-2.81,1.8-.66.42-1.43.74-1.98,1.27-9.63,9.22-19.25,18.47-28.85,27.73-1.72,1.66-3.31,3.44-4.97,5.16-1.02,1.06-1.95,2.14-2.37,3.61-.17.6-.66,1.15-1.1,1.62-17.54,18.94-32.24,39.98-45.14,62.26-11.2,19.35-21.88,39-32.81,58.5-3.79,6.76-8.36,12.93-14.29,17.99-3.52,3-7.43,5.32-11.87,6.72-5.42,1.7-10.84,1.4-16.31.21-13.89-3.04-25.57-10.07-35.85-19.66-8.69-8.11-15.99-17.39-22.58-27.22-7.91-11.79-15.71-23.65-22.96-35.87-3.04-5.12-6.77-9.83-10.36-14.6-2.06-2.73-4.94-4.63-7.86-6.34-2.54-1.49-6.94-.73-9.33,1.39-4.95,4.39-8.61,9.7-11.17,15.79-2.23,5.29-3.55,10.83-4.35,16.5-.24,1.72-.54,3.39-1.35,4.95-.35.69-.52,1.5-.62,2.28-1.24,8.94-2.1,17.94-2.29,26.95-.18,8.48-.09,16.99.27,25.47.78,17.94,3.55,35.62,7.75,53.08,3.02,12.52,6.85,24.79,11.37,36.85.46,1.24.88,2.52,1.1,3.81.48,2.72,1.37,5.24,2.86,7.57.6.94,1.09,1.98,1.45,3.04,6.12,17.82,14.43,34.63,23.57,51.06,11.56,20.77,24.2,40.88,36.9,60.95,4.08,6.45,6.67,13.33,8.39,20.71,1.39,5.95.38,11.48-2.01,16.84-2.53,5.67-6.36,10.3-11.45,14-10.63,7.73-22.02,13.86-34.89,16.81-6.72,1.54-13.56,2.51-20.31,3.93-8.36,1.75-16.82,2.15-25.32,2.43-9.74.32-19.5.56-29.22,1.22-5.67.39-11.32,1.4-16.92,2.41-3.09.56-5.89,2.12-8.14,4.36-1.05,1.04-1.69,2.49-2.51,3.75-.28.43-.53.88-.79,1.31v4.78c.24.6.59,1.19.71,1.82.73,3.63,2.26,6.92,4.24,10.02.39.61.89,1.15,1.36,1.7.52.6,1.26,1.1,1.56,1.79,1.26,2.96,4.04,4.59,5.97,6.96,1.92,2.36,4.08,4.54,6.25,6.68,2.22,2.19,4.5,4.32,6.87,6.34,7.84,6.7,16.42,12.37,25.18,17.77,18.62,11.48,38.56,20.08,59.28,26.91,16.01,5.28,32.29,9.56,48.87,12.67,10.7,2,21.49,3.3,32.34,4.19,13.56,1.11,27.14,1.64,40.75,1.59,12.14-.04,24.28-.06,36.42-.14,10.88-.07,21.76-.26,32.64-.3,4.84-.02,9.68.13,14.52.35,3.85.17,7.44,1.33,10.56,3.67,2.01,1.51,4.04,3.03,5.93,4.68,2.06,1.8,3.67,4.01,4.87,6.48,4.47,9.25,6.46,19.04,6.3,29.29-.2,12.16-3.21,23.74-7.38,35.06-2.86,7.79-6.32,15.32-9.93,22.79-2.59,5.37-5.12,10.77-7.76,16.12-1.18,2.37-2.55,4.65-3.89,6.94-1.82,3.09-3.69,6.12-4.76,9.6-.38,1.23-1.19,2.38-1.96,3.44-1.98,2.74-3.21,5.77-3.86,9.07-.06.32-.08.72-.28.94-2.26,2.44-2.11,5.62-2.56,8.58-.23,1.53-.04,3.17.19,4.73.33,2.21,1.69,3.83,3.4,5.21,1.96,1.58,4.23,2.45,6.62,3.09.36.1.7.28,1.05.42h13.54c1.67-.32,3.34-.66,5.01-.97,7.01-1.29,13.77-3.47,20.29-6.28,15.3-6.6,30.35-13.69,44.3-22.92,11.59-7.67,22.37-16.37,32.87-25.46,22.28-19.32,41.72-41.19,58.75-65.23,13.02-18.37,24.77-37.55,35.64-57.26,5.79-10.51,11.17-21.25,16.87-31.81,1.7-3.14,3.83-6.05,5.79-9.05.89-1.37,1.52-2.96,3.22-3.65.31-.12.48-.61.7-.94,4.71-7.2,11.17-11.82,19.61-13.87,8.1-1.97,15.79-.85,23.34,2.21,5.81,2.35,11.13,5.6,16.43,8.89.33.21.76.45.88.77.57,1.57,1.98,2.27,3.18,3.18,11.2,8.53,20.43,18.9,28.59,30.29,6.31,8.8,11.91,18.05,17.63,27.23,4.18,6.7,8.43,13.35,12.81,19.92,1.61,2.41,3.67,4.52,5.55,6.75.38.45.86.83,1.32,1.21,4.93,4.04,10.38,4.17,15.54.42,3.25-2.37,5.45-5.57,7.32-9.05,2.15-4,3.4-8.34,4.81-12.63.14-.43.21-.92.18-1.37-.06-1.17.33-2.17.83-3.22.44-.92.69-2,.74-3.03.06-1.29.22-2.46.92-3.59.44-.71.73-1.58.83-2.42.8-6.72,1.7-13.42,2.25-20.16.61-7.47.81-14.97.33-22.46-.44-6.95-.66-13.92-1.35-20.84-.87-8.71-1.89-17.41-3.25-26.05-2.45-15.54-6.19-30.8-10.98-45.8-2.79-8.72-5.97-17.29-9.43-25.77-1.4-3.43-2.5-6.99-3.75-10.48-.33-.94-.64-1.88-1.05-2.79-10.2-22.89-22.14-44.83-35.81-65.84-4.74-7.29-9.38-14.64-13.78-22.14-3.72-6.34-7.17-12.86-10.48-19.43-2.22-4.39-3.63-9.1-3.93-14.09-.26-4.27.53-8.3,2.36-12.16.44-.93.56-2.01.96-2.97.29-.71.75-1.36,1.19-2,.79-1.13,1.59-2.26,2.45-3.34,1.03-1.29,2.05-2.61,3.22-3.77,5.66-5.65,12.41-9.71,19.57-13.13,9.76-4.67,20.13-7.41,30.68-9.57,12.72-2.6,25.59-3.58,38.54-4.08,9.61-.37,19.21-.91,28.8-1.61,4.42-.32,8.8-1.18,13.19-1.86.97-.15,1.93-.5,2.86-.84,3.57-1.29,6.4-3.39,7.67-7.16v-5.18c-.28-1.07-.61-2.12-.83-3.2ZM797.2,549.74c-36.18,0-52.63-16.34-52.63-37.62v-3.91c0-21.28,16.45-37.62,52.63-37.62s50.67,13.77,52.52,36.28h-41.01c-.93-3.39-3.91-6.48-11.51-6.48-8.12,0-12.03,3.91-12.03,9.35v.82c0,5.45,3.91,9.35,12.03,9.35,7.61,0,10.59-3.08,11.51-6.48h41.01c-1.85,22.51-16.86,36.28-52.52,36.28ZM843.35,547.68l29.6-75.04h46.15l29.71,75.04h-38.34l-2.67-7.91h-23.33l-2.77,7.91h-38.34ZM955.75,601.82h-27.55v44.61h-40.09v-44.61h-27.55v-30.43h95.18v30.43ZM1046.93,646.43h-85.42v-75.04h84.8v23.54h-47.28v5.96h45.84v15.73h-45.84v6.06h47.9v23.74ZM1069.28,547.68h-35.98l.1-36.7-16.96,36.7h-14.7l-16.86-36.7.1,36.7h-36.08v-75.04h48.21l12.54,28.88,12.75-28.88h46.87v75.04ZM1162.51,547.68h-85.42v-75.04h84.8v23.54h-47.28v5.96h45.84v15.73h-45.84v6.06h47.9v23.74Z"/>
  <path class="cls-2" d="M808.72,513.46c-.93,3.39-3.91,6.48-11.51,6.48-8.12,0-12.03-3.91-12.03-9.35v-.82c0-5.45,3.91-9.35,12.03-9.35,7.61,0,10.59,3.08,11.51,6.48h41.01c-1.85-22.51-16.86-36.28-52.52-36.28s-52.63,16.34-52.63,37.62v3.91c0,21.28,16.45,37.62,52.63,37.62s50.67-13.77,52.52-36.28h-41.01Z"/>
  <path class="cls-2" d="M884.47,539.77h23.33l2.67,7.91h38.34l-29.71-75.04h-46.15l-29.6,75.04h38.34l2.77-7.91ZM896.08,498.24l5.65,18.71h-11.31l5.65-18.71Z"/>
  <polygon class="cls-2" points="1009.66 501.53 997.12 472.65 948.92 472.65 948.92 547.68 985 547.68 984.89 510.99 1001.75 547.68 1016.45 547.68 1033.41 510.99 1033.31 547.68 1069.28 547.68 1069.28 472.65 1022.41 472.65 1009.66 501.53"/>
  <polygon class="cls-2" points="1114.61 517.88 1160.45 517.88 1160.45 502.15 1114.61 502.15 1114.61 496.19 1161.89 496.19 1161.89 472.65 1077.09 472.65 1077.09 547.68 1162.51 547.68 1162.51 523.94 1114.61 523.94 1114.61 517.88"/>
  <polygon class="cls-2" points="860.57 601.82 888.12 601.82 888.12 646.43 928.21 646.43 928.21 601.82 955.75 601.82 955.75 571.4 860.57 571.4 860.57 601.82"/>
  <polygon class="cls-2" points="999.03 616.63 1044.87 616.63 1044.87 600.9 999.03 600.9 999.03 594.94 1046.31 594.94 1046.31 571.4 961.51 571.4 961.51 646.43 1046.93 646.43 1046.93 622.69 999.03 622.69 999.03 616.63"/>
</svg>
