<?xml version="1.0" encoding="UTF-8"?>
<svg id="Layer_1" data-name="Layer 1" xmlns="http://www.w3.org/2000/svg" viewBox="0 0 1920 1080">
  <defs>
    <style>
      .cls-1 {
        fill: #e84825;
        stroke-width: 0px;
      }
    </style>
  </defs>
  <path class="cls-1" d="M1015.29,190.84c1.73,0,3.46,0,5.18,0,.43.11.86.23,1.3.33,1.51.36,3.07.56,4.52,1.09,5.14,1.85,7.65,6.03,7.03,11.48-.34,2.98-1.62,5.62-3,8.22-.92,1.73-1.97,3.39-2.83,5.14-3.39,6.86-6.69,13.77-10.09,20.62-4.85,9.8-9.8,19.55-14.01,29.65-.33.79-.6,1.61-.82,2.44-.35,1.32-.57,2.68-.94,4-.42,1.49-.99,2.94-1.44,4.43-2.59,8.58-4.41,17.28-4.08,26.31.2,5.57,1.2,10.98,3.32,16.15,1.56,3.79,3.36,7.49,6.17,10.52,4.45,4.8,10.17,7.06,16.58,7.52,8.44.61,16.9.67,25.36.51,3.34-.06,6.67-.13,10.01-.24,8.28-.29,16.56-.72,24.84-.87,6.73-.11,13.47.03,20.2.21,9.55.26,19.07,1.05,28.58,2.03,12.6,1.3,25.1,3.24,37.49,5.9,27.27,5.85,53.01,15.77,77.35,29.29,15.08,8.37,28.5,18.85,39.45,32.3.25.31.52.71.86.82,1.05.33,1.52,1.17,2.02,2.01.77,1.28,1.58,2.54,2.34,3.83,1.39,2.34,2.51,4.79,3.06,7.47.19.94.48,1.85.72,2.78v4.49c-1.1,3.26-3.56,5.09-6.65,6.21-.81.29-1.64.59-2.48.72-3.81.59-7.61,1.33-11.44,1.61-8.32.61-16.65,1.07-24.98,1.39-11.23.43-22.39,1.28-33.43,3.54-9.16,1.87-18.15,4.25-26.61,8.3-6.21,2.97-12.07,6.48-16.98,11.39-1.01,1.01-1.9,2.15-2.79,3.27-.75.94-1.44,1.92-2.12,2.9-.38.55-.78,1.12-1.03,1.73-.34.83-.45,1.77-.83,2.58-1.59,3.35-2.27,6.84-2.05,10.54.26,4.33,1.49,8.41,3.41,12.22,2.88,5.7,5.86,11.35,9.09,16.85,3.82,6.5,7.84,12.88,11.95,19.2,11.85,18.23,22.21,37.25,31.06,57.11.35.79.62,1.61.91,2.42,1.08,3.03,2.04,6.12,3.25,9.09,3,7.35,5.76,14.79,8.18,22.35,4.16,13.01,7.4,26.24,9.52,39.73,1.18,7.5,2.06,15.05,2.82,22.6.6,6.01.79,12.05,1.17,18.08.42,6.5.24,13.01-.29,19.49-.47,5.84-1.26,11.66-1.95,17.49-.09.72-.34,1.48-.72,2.09-.61.98-.75,2-.8,3.11-.04.89-.25,1.83-.64,2.63-.44.91-.77,1.77-.72,2.79.02.39-.04.81-.16,1.19-1.22,3.72-2.31,7.48-4.17,10.95-1.62,3.02-3.53,5.8-6.35,7.85-4.47,3.26-9.2,3.14-13.48-.36-.4-.33-.81-.66-1.14-1.05-1.63-1.93-3.42-3.76-4.82-5.85-3.8-5.7-7.49-11.47-11.11-17.28-4.96-7.96-9.82-15.99-15.29-23.62-7.08-9.88-15.09-18.88-24.8-26.27-1.04-.79-2.26-1.39-2.76-2.76-.1-.28-.48-.49-.76-.67-4.6-2.85-9.22-5.67-14.25-7.71-6.55-2.66-13.22-3.63-20.25-1.92-7.32,1.78-12.92,5.78-17.01,12.03-.19.29-.34.71-.6.81-1.48.59-2.02,1.98-2.79,3.16-1.7,2.6-3.55,5.12-5.02,7.85-4.94,9.16-9.61,18.48-14.63,27.6-9.42,17.1-19.62,33.73-30.91,49.67-14.77,20.85-31.63,39.82-50.96,56.58-9.1,7.89-18.45,15.43-28.51,22.09-12.1,8.01-25.15,14.16-38.42,19.88-5.66,2.44-11.52,4.33-17.6,5.45-1.45.27-2.9.56-4.34.84h-11.75c-.3-.12-.6-.28-.91-.37-2.07-.56-4.04-1.32-5.74-2.68-1.48-1.19-2.66-2.61-2.95-4.52-.2-1.35-.37-2.77-.17-4.1.39-2.56.26-5.32,2.22-7.44.17-.19.19-.53.24-.81.56-2.86,1.63-5.49,3.35-7.87.67-.93,1.37-1.92,1.7-2.99.93-3.01,2.55-5.65,4.13-8.33,1.17-1.98,2.36-3.96,3.38-6.02,2.3-4.63,4.48-9.32,6.73-13.98,3.13-6.48,6.13-13.01,8.61-19.77,3.61-9.83,6.23-19.86,6.4-30.41.14-8.89-1.58-17.38-5.46-25.41-1.04-2.15-2.44-4.06-4.23-5.62-1.64-1.44-3.4-2.75-5.14-4.06-2.71-2.03-5.82-3.03-9.16-3.19-4.19-.19-8.4-.32-12.59-.3-9.44.03-18.87.2-28.31.26-10.53.07-21.06.08-31.59.12-11.8.04-23.58-.42-35.35-1.38-9.41-.77-18.78-1.9-28.05-3.64-14.38-2.69-28.5-6.41-42.39-10.99-17.98-5.93-35.27-13.38-51.42-23.35-7.6-4.69-15.04-9.6-21.84-15.42-2.05-1.76-4.04-3.6-5.96-5.5-1.88-1.86-3.76-3.75-5.42-5.8-1.67-2.06-4.08-3.47-5.18-6.04-.26-.6-.9-1.03-1.35-1.56-.41-.48-.84-.95-1.18-1.48-1.72-2.68-3.05-5.54-3.68-8.69-.11-.55-.41-1.05-.62-1.58,0-1.38,0-2.76,0-4.15.23-.38.45-.77.69-1.14.71-1.1,1.27-2.35,2.18-3.26,1.95-1.94,4.38-3.3,7.06-3.78,4.86-.88,9.76-1.75,14.68-2.09,8.43-.58,16.89-.79,25.35-1.06,7.37-.24,14.71-.59,21.96-2.1,5.85-1.23,11.79-2.07,17.62-3.41,11.17-2.56,21.05-7.88,30.27-14.58,4.42-3.21,7.74-7.23,9.93-12.15,2.07-4.65,2.95-9.45,1.75-14.61-1.5-6.39-3.74-12.37-7.28-17.96-11.02-17.41-21.98-34.86-32.01-52.87-7.93-14.25-15.14-28.83-20.44-44.29-.31-.92-.74-1.82-1.26-2.64-1.3-2.02-2.07-4.21-2.48-6.57-.2-1.12-.56-2.23-.96-3.31-3.92-10.46-7.25-21.1-9.86-31.97-3.65-15.14-6.05-30.48-6.72-46.04-.32-7.35-.39-14.73-.24-22.09.17-7.82.91-15.62,1.98-23.38.09-.67.23-1.38.54-1.98.7-1.36.96-2.81,1.17-4.3.69-4.91,1.83-9.72,3.77-14.31,2.23-5.28,5.4-9.89,9.69-13.7,2.07-1.84,5.88-2.49,8.09-1.2,2.54,1.48,5.04,3.13,6.82,5.5,3.12,4.13,6.36,8.22,8.99,12.66,6.29,10.6,13.06,20.89,19.92,31.12,5.72,8.53,12.05,16.58,19.59,23.61,8.92,8.32,19.05,14.42,31.1,17.05,4.75,1.04,9.45,1.3,14.15-.18,3.85-1.21,7.25-3.22,10.3-5.83,5.15-4.39,9.11-9.75,12.4-15.61,9.49-16.91,18.75-33.96,28.46-50.74,11.19-19.33,23.94-37.57,39.15-54.01.38-.41.8-.89.95-1.41.37-1.28,1.17-2.22,2.06-3.13,1.44-1.49,2.82-3.04,4.31-4.48,8.32-8.04,16.67-16.05,25.02-24.05.48-.46,1.14-.74,1.72-1.1.82-.52,1.69-.96,2.44-1.57,3.94-3.18,7.68-6.64,11.8-9.56,7.46-5.3,15.14-10.28,22.73-15.4,1.01-.68,1.98-1.32,3.29-1.32.52,0,1.06-.39,1.56-.65,4.66-2.5,9.24-5.17,13.99-7.49,9.51-4.65,19.5-7.89,30.03-9.32,1.18-.16,2.35-.39,3.52-.59Z"/>
</svg>
